<?xml version="1.0" standalone="no"?>
<!DOCTYPE svg PUBLIC "-//W3C//DTD SVG 20010904//EN"
 "http://www.w3.org/TR/2001/REC-SVG-20010904/DTD/svg10.dtd">
<svg version="1.0" xmlns="http://www.w3.org/2000/svg"
 width="282.000000pt" height="282.000000pt" viewBox="0 0 282.000000 282.000000"
 preserveAspectRatio="xMidYMid meet">
<metadata>
Created by potrace 1.14, written by Peter Selinger 2001-2017
</metadata>
<g transform="translate(0.000000,282.000000) scale(0.100000,-0.100000)"
fill="#000000" stroke="none">
<path d="M1215 2644 c-468 -87 -837 -408 -984 -854 -82 -250 -82 -531 -1 -779
84 -257 274 -510 491 -654 102 -68 264 -146 316 -153 l38 -6 -55 32 c-30 18
-112 70 -181 115 -147 97 -344 279 -355 328 -8 40 -44 98 -55 91 -10 -6 -29
37 -22 49 9 15 -7 57 -22 57 -15 0 -19 19 -30 122 -7 59 -21 81 -36 57 -10
-17 -12 -13 -40 124 -12 59 -26 110 -30 113 -14 8 -10 44 5 44 20 0 41 107 27
143 -13 35 -14 37 -1 37 6 0 10 -9 10 -20 0 -24 25 -27 34 -4 3 9 6 31 6 50 0
25 -4 34 -16 34 -15 0 -16 8 -9 58 5 31 9 85 9 119 1 68 15 94 36 68 20 -24
30 -18 30 18 1 17 11 74 23 124 17 69 30 100 51 122 16 16 25 34 22 40 -4 6
-1 20 6 31 11 17 11 22 0 29 -10 6 -3 18 29 45 55 47 69 46 30 -3 -29 -37 -31
-51 -6 -51 9 0 70 102 70 116 0 1 19 5 42 9 l43 7 -7 -33 c-6 -29 -4 -32 13
-24 10 4 46 18 79 30 53 19 60 24 60 48 -1 21 4 27 20 27 11 0 47 15 80 33 48
26 61 37 63 60 2 17 -1 27 -10 27 -16 0 -80 -38 -90 -54 -5 -7 -12 -5 -21 8
-20 27 -50 16 -60 -21 -5 -17 -22 -44 -38 -59 -26 -24 -27 -25 -22 -5 3 12 9
24 14 27 5 3 9 9 9 15 0 15 -33 10 -69 -12 -25 -15 -37 -17 -45 -9 -8 8 -4 16
14 31 70 55 320 143 320 112 0 -11 4 -11 20 -3 16 9 20 8 20 -5 0 -20 59 -20
86 0 16 12 17 14 3 15 -9 0 -19 7 -23 15 -7 19 28 55 52 54 10 0 12 -3 5 -6
-7 -2 -13 -9 -13 -14 0 -11 151 1 168 14 8 6 17 5 27 -3 12 -10 18 -10 30 0
12 10 18 10 30 0 17 -14 60 -9 129 16 41 15 56 16 93 6 24 -7 56 -12 72 -12
20 0 37 -9 55 -30 24 -29 27 -30 49 -16 21 15 26 13 72 -20 53 -37 70 -58 60
-74 -7 -11 46 -40 75 -40 11 0 20 -4 20 -9 0 -5 28 -26 63 -48 211 -133 361
-325 439 -561 12 -35 27 -66 35 -69 7 -3 13 -9 13 -15 0 -5 -5 -6 -11 -2 -9 5
-10 -1 -5 -22 4 -16 10 -49 13 -74 2 -25 11 -60 20 -79 13 -28 13 -37 2 -58
-10 -19 -10 -35 0 -84 11 -55 10 -63 -7 -93 -14 -23 -17 -38 -10 -49 7 -13 5
-15 -5 -11 -19 7 -29 -34 -21 -86 6 -36 5 -40 -15 -40 -17 0 -21 -6 -21 -30 0
-16 -4 -30 -10 -30 -5 0 -24 -28 -41 -62 -42 -83 -78 -134 -170 -244 -43 -50
-98 -122 -123 -159 -25 -37 -55 -73 -67 -79 -13 -6 -24 -17 -27 -25 -4 -10 6
-12 47 -6 28 4 51 4 51 -1 0 -18 -55 -76 -89 -93 -20 -11 -43 -27 -50 -35 -8
-10 -29 -16 -52 -16 -27 0 -39 -4 -39 -14 0 -8 -3 -21 -6 -30 -9 -24 19 -20
84 13 208 106 414 318 528 543 84 166 122 315 131 504 10 216 -29 417 -117
601 -67 142 -138 241 -250 353 -161 162 -359 275 -580 332 -100 26 -136 31
-280 34 -118 2 -188 -1 -245 -12z m80 -34 c3 -5 -1 -10 -9 -10 -9 0 -16 5 -16
10 0 6 4 10 9 10 6 0 13 -4 16 -10z m-1036 -1030 c-1 -32 -2 -33 -9 -10 -4 14
-8 36 -9 50 -1 20 1 22 9 10 5 -8 9 -31 9 -50z m2221 -699 c0 -6 -4 -13 -10
-16 -5 -3 -10 1 -10 9 0 9 5 16 10 16 6 0 10 -4 10 -9z m-36 -153 c-10 -16
-22 -7 -17 13 4 15 8 17 14 8 4 -7 5 -17 3 -21z m-134 -108 c0 -11 -7 -20 -15
-20 -18 0 -19 12 -3 28 16 16 18 15 18 -8z m61 -13 c-13 -13 -26 -3 -16 12 3
6 11 8 17 5 6 -4 6 -10 -1 -17z"/>
<path d="M1880 2456 c0 -10 9 -16 21 -16 24 0 21 23 -4 28 -10 2 -17 -3 -17
-12z"/>
<path d="M1898 2073 c-158 -159 -268 -282 -388 -430 -60 -75 -72 -84 -165
-130 -59 -30 -149 -63 -221 -82 l-120 -33 -91 31 c-107 37 -143 38 -220 9
-139 -51 -182 -177 -96 -279 36 -42 79 -59 180 -69 94 -10 109 -7 119 23 10
31 91 161 113 181 31 28 180 76 236 76 28 0 67 -5 89 -11 l39 -11 -5 -71 c-4
-52 -14 -91 -37 -142 -38 -83 -62 -111 -110 -126 -101 -33 -158 -76 -186 -141
-22 -54 -19 -95 15 -165 28 -61 29 -65 15 -104 -26 -74 -16 -200 18 -221 17
-11 24 -10 40 6 11 12 12 26 4 76 -12 76 5 121 54 141 18 8 60 28 93 44 113
56 149 151 106 279 -25 77 -25 82 23 191 19 44 46 110 61 147 46 110 105 180
204 240 163 97 462 297 585 391 108 82 84 103 -50 41 -259 -119 -406 -185
-409 -182 -1 2 19 35 45 73 92 136 233 366 235 382 3 39 -30 14 -176 -134z
m-15 -128 c-3 -9 -8 -14 -10 -11 -3 3 -2 9 2 15 9 16 15 13 8 -4z m-61 -92
c-6 -10 -20 -27 -33 -38 -19 -16 -17 -12 7 22 29 41 44 51 26 16z m322 6 c-25
-28 -64 -55 -91 -63 -19 -6 -23 -3 -23 12 0 15 15 26 63 45 34 14 64 26 66 26
2 1 -4 -8 -15 -20z m-149 -69 c4 -6 1 -18 -6 -26 -12 -14 -14 -14 -26 2 -7 10
-14 16 -14 13 -1 -2 -3 -17 -5 -33 -4 -34 -23 -57 -70 -82 -30 -17 -36 -17
-44 -4 -17 26 -12 71 8 77 10 2 43 17 73 33 60 31 75 35 84 20z m-295 -112
c-6 -13 -21 -30 -32 -37 -23 -14 -20 -8 16 41 23 33 31 31 16 -4z m79 -16 c-2
-24 -2 -24 -6 -4 -2 12 -9 22 -14 22 -6 0 -7 5 -4 10 11 17 25 0 24 -28z m-40
-64 c1 -19 -28 -41 -68 -53 -22 -7 -20 -3 15 48 39 54 51 56 53 5z m-143 -19
c1 -59 -7 -76 -59 -133 -46 -51 -52 -51 -56 0 -2 29 -1 30 29 26 20 -3 37 2
50 13 27 24 25 41 -6 72 l-25 25 22 24 c31 33 44 25 45 -27z m-146 -207 c0 -7
-4 -11 -9 -8 -5 4 -11 0 -14 -6 -2 -7 -8 4 -12 24 -10 50 5 72 21 33 7 -17 13
-36 14 -43z m-126 39 c3 -5 -4 -8 -17 -8 -12 1 -49 -2 -82 -6 l-60 -6 45 13
c53 17 107 20 114 7z m-475 -35 c51 -27 64 -89 31 -144 -68 -111 -249 -85
-252 37 -3 89 130 154 221 107z m87 -20 c11 -8 29 -16 41 -18 20 -3 20 -4 -6
-28 l-27 -25 -21 43 c-23 44 -20 51 13 28z m144 5 c-8 -5 -26 -11 -40 -15 -21
-5 -20 -3 5 9 32 15 60 20 35 6z m-210 -231 c0 -5 -5 -10 -11 -10 -5 0 -7 5
-4 10 3 6 8 10 11 10 2 0 4 -4 4 -10z m476 -205 l19 -29 -53 30 -53 29 28 22
28 23 6 -24 c4 -12 15 -36 25 -51z m-78 -9 c45 -23 63 -51 64 -96 0 -35 -5
-48 -35 -78 -28 -28 -45 -36 -84 -39 -144 -14 -177 129 -48 208 36 23 66 24
103 5z m-85 -256 c5 -4 -5 -15 -22 -23 l-31 -15 0 29 c0 27 3 30 23 24 12 -4
26 -11 30 -15z"/>
<path d="M666 2161 c-3 -5 1 -15 10 -22 38 -31 44 -64 43 -231 0 -186 -9 -257
-33 -270 -32 -18 -15 -28 49 -28 36 0 65 3 65 6 0 4 -11 17 -24 29 -29 27 -39
98 -34 260 l3 110 103 -202 c56 -112 106 -203 111 -203 4 0 50 98 100 218 51
119 97 221 102 227 5 5 9 -71 9 -198 l0 -207 -25 -12 c-46 -21 -26 -28 79 -28
107 0 134 8 91 28 l-25 12 2 242 c3 240 3 243 25 254 35 17 16 24 -63 24 -89
0 -76 16 -174 -217 -40 -95 -76 -173 -79 -173 -3 0 -50 88 -104 195 l-97 195
-64 0 c-36 0 -67 -4 -70 -9z"/>
<path d="M511 1974 c0 -11 3 -14 6 -6 3 7 2 16 -1 19 -3 4 -6 -2 -5 -13z"/>
<path d="M545 1939 c-4 -6 -13 -8 -21 -5 -8 3 -35 -15 -64 -42 l-50 -48 0 -72
c0 -40 4 -72 9 -72 5 0 23 24 39 53 47 85 96 161 109 170 7 4 13 12 13 17 0
13 -27 13 -35 -1z"/>
<path d="M357 1683 c-12 -11 -7 -60 7 -72 17 -14 31 1 42 43 5 21 4 27 -5 22
-7 -4 -18 -3 -25 3 -7 6 -16 8 -19 4z"/>
<path d="M1552 1221 c-10 -6 -6 -11 17 -19 l31 -11 0 -261 0 -261 -31 -11
c-51 -17 -15 -28 98 -28 96 0 137 11 93 25 -32 10 -37 33 -32 148 l4 107 134
0 134 0 0 -112 c0 -62 -4 -118 -8 -124 -4 -6 -17 -14 -30 -18 -49 -16 -6 -27
94 -25 108 3 145 11 103 24 -13 4 -27 13 -31 19 -4 6 -8 122 -8 259 l0 247 31
19 c24 15 27 20 14 25 -22 8 -210 8 -218 -1 -4 -3 7 -15 23 -25 l31 -18 -3
-118 -3 -117 -132 -3 -132 -3 -3 38 c-2 21 -2 78 0 126 3 82 5 89 27 99 14 6
22 15 19 19 -7 12 -205 11 -222 0z"/>
<path d="M1805 289 c-4 -6 -4 -13 -1 -16 8 -8 36 5 36 17 0 13 -27 13 -35 -1z"/>
<path d="M1723 256 c-23 -13 -44 -22 -47 -19 -2 3 -40 -4 -83 -14 -58 -13
-118 -18 -235 -18 -86 0 -154 -3 -151 -7 2 -5 15 -8 29 -8 17 0 24 -6 24 -19
0 -23 26 -31 107 -31 60 0 103 19 46 21 -25 0 -26 1 -8 9 38 16 99 11 117 -9
20 -23 51 -21 206 15 121 28 202 61 202 81 0 11 -7 13 -25 9 -14 -4 -45 -9
-70 -13 -38 -5 -45 -3 -45 11 0 22 -18 20 -67 -8z"/>
</g>
</svg>
